<svg xmlns="http://www.w3.org/2000/svg" width="55.071" height="65.07" viewBox="0 0 55.071 65.07"><defs><style>.a{fill:#ffb95c;}.b{fill:#fbb040;}.c{fill:#d7d7d7;}.d{fill:#e4e7e7;}.e{fill:#98a19c;}.f{fill:#7e7e7e;}.g{fill:#004a3d;}.h{fill:#eaf6f8;}</style></defs><g transform="translate(-1884.627 -7620.633)"><g transform="translate(1884.627 7620.633)"><path class="a" d="M1929.7,7683.224a57.419,57.419,0,0,0,5.163-3.282,47.432,47.432,0,0,0,6.939-6.32,51.9,51.9,0,0,0,6-8.6,48.586,48.586,0,0,0,4.693-12.468,45.97,45.97,0,0,0,1.307-9.351c.144-3.176.331-6.348.516-9.823,0-.446-.017-1.192.006-1.935.011-.363-.112-.5-.477-.562-2.093-.337-4.179-.7-6.27-1.052a49.691,49.691,0,0,1-11.693-3.457c-2.11-.92-4.021-1.918-6.1-2.912-.2-.1-.412-.157-.412-.178v-2.654h0c.783,0,1.558.784,2.353,1.169a62.754,62.754,0,0,0,12.388,4.763c2.863.694,5.751,1.165,8.646,1.725,1.243.239,2.841.424,3.715.64v3.271c0,.176-.05.353-.059.53q-.234,4.789-.444,9.577a49.7,49.7,0,0,1-1.414,10.049,52.961,52.961,0,0,1-4.06,11.558,49.161,49.161,0,0,1-12.215,15.718,45.387,45.387,0,0,1-7.31,5.281c-.51.271-.875.509-1.409.734a.5.5,0,0,1-.188.054v-2.344A2.123,2.123,0,0,0,1929.7,7683.224Z" transform="translate(-1901.399 -7620.632)"/><path class="b" d="M1892.61,7627.541a57.3,57.3,0,0,0,14.2-4.546c1.513-.7,3.03-1.373,4.531-2.095.17-.082.337-.268.495-.268h.767v2.654c-.875-.025-.684.026-.97.17a74.661,74.661,0,0,1-12.065,4.981,64.085,64.085,0,0,1-8.644,1.821c-1.236.187-2.482.438-3.715.643a.39.39,0,0,0-.385.476c.165,3.682.293,7.367.484,11.05a56.319,56.319,0,0,0,.471,5.749,51.085,51.085,0,0,0,3.776,13.229,45.438,45.438,0,0,0,10.62,15.018,39.707,39.707,0,0,0,7.91,6.027,17,17,0,0,0,2.04.865c.09.033-.4.046.479.041v2.344s-.277-.017-.324-.037a23.5,23.5,0,0,1-2.247-1.008,38.229,38.229,0,0,1-6.021-4.251,49.607,49.607,0,0,1-16.542-25.366,54.608,54.608,0,0,1-1.989-10.5c-.2-2.863-.391-5.729-.542-8.6-.074-1.393-.307-2.787-.307-4.179v-2.835C1887.249,7628.463,1889.975,7627.994,1892.61,7627.541Z" transform="translate(-1884.627 -7620.632)"/><path class="c" d="M1912.911,7626.727a57.4,57.4,0,0,1-12.453,5c-2.706.654-5.508,1.082-8.244,1.612-.744.145-1.508.291-2.316.45.061,1.773.1,3.461.167,5.147.083,1.959.2,3.917.275,5.878a48.022,48.022,0,0,0,5.039,20.035,42.934,42.934,0,0,0,11.406,14.216,32.581,32.581,0,0,0,6.317,4.075c.227.107-.066.163.809.172v1.637c-.875,0-.389-.009-.479-.043a16.1,16.1,0,0,1-1.957-.862,40.1,40.1,0,0,1-7.951-6.028A45.5,45.5,0,0,1,1892.882,7663a51.125,51.125,0,0,1-3.788-13.23,56.468,56.468,0,0,1-.479-5.749c-.19-3.682-.327-7.367-.491-11.051-.013-.29.075-.426.374-.476,1.233-.2,2.458-.454,3.693-.642a63.505,63.505,0,0,0,8.6-1.821,75.573,75.573,0,0,0,12.147-4.98c.287-.144.1-.2.97-.171v1.637C1913.037,7626.5,1913.21,7626.576,1912.911,7626.727Z" transform="translate(-1885.939 -7622.223)"/><path class="d" d="M1935.913,7627.97a49.539,49.539,0,0,0,11.692,3.457c2.09.35,4.177.715,6.27,1.053.366.058.488.2.477.562-.023.744-.008,1.488-.008,1.936-.185,3.475-.375,6.648-.518,9.823a45.977,45.977,0,0,1-1.313,9.35,48.586,48.586,0,0,1-4.7,12.468,51.894,51.894,0,0,1-6.018,8.6,47.787,47.787,0,0,1-6.98,6.322,55.762,55.762,0,0,1-5.081,3.28,2.307,2.307,0,0,1-.327.134v-1.636a2.08,2.08,0,0,0,.624-.207,29.063,29.063,0,0,0,5.432-3.671,49.465,49.465,0,0,0,5.728-5.467,42.9,42.9,0,0,0,8.607-15.418c.827-2.789,1.449-5.642,2.055-8.487a24.065,24.065,0,0,0,.344-3.846c.182-3.757.351-7.512.475-11.268.044-1.308.3-1.122-1.162-1.4-3.129-.592-6.285-1.083-9.377-1.83a54.075,54.075,0,0,1-12.148-4.991,4.2,4.2,0,0,0-.577-.216v-1.635c0,.02.209.079.412.177C1931.891,7626.053,1933.8,7627.052,1935.913,7627.97Z" transform="translate(-1901.43 -7622.226)"/><path class="a" d="M1929.979,7627.714a54.578,54.578,0,0,0,12.231,4.991c3.092.748,6.206,1.239,9.336,1.83,1.464.277,1.183.092,1.139,1.4-.124,3.758-.305,7.513-.487,11.268a24.157,24.157,0,0,1-.354,3.846c-.606,2.848-1.241,5.7-2.068,8.487a42.956,42.956,0,0,1-8.629,15.418,49.833,49.833,0,0,1-5.77,5.468,28.565,28.565,0,0,1-5.35,3.671,2.1,2.1,0,0,1-.624.206v-56.8A3.966,3.966,0,0,1,1929.979,7627.714Z" transform="translate(-1901.43 -7623.209)"/><path class="b" d="M1907.839,7680.049a42.924,42.924,0,0,1-11.407-14.214,48.01,48.01,0,0,1-5.042-20.036c-.076-1.96-.2-3.918-.281-5.877-.071-1.687-.116-3.375-.177-5.149.808-.157,1.551-.3,2.3-.448,2.736-.53,5.5-.959,8.2-1.613a58.079,58.079,0,0,0,12.536-5c.3-.151.125-.223,1-.213v56.8c-.875-.008-.583-.063-.81-.172A32.514,32.514,0,0,1,1907.839,7680.049Z" transform="translate(-1886.993 -7623.209)"/></g><g transform="translate(1904.978 7632.627)"><path class="e" d="M1924.464,7639.833v0a8.157,8.157,0,0,0-3.019.55,6.306,6.306,0,0,0-2.182,1.449,7.323,7.323,0,0,0-1.839,3.494,8.239,8.239,0,0,0-.22,1.835v3.94h3.189v-3.979a4.822,4.822,0,0,1,1.164-3.074,3.943,3.943,0,0,1,2.937-1.027v-3.189Z" transform="translate(-1917.203 -7639.833)"/><path class="f" d="M1935.942,7645.328a7.314,7.314,0,0,0-1.838-3.494,6.308,6.308,0,0,0-2.182-1.449,8.159,8.159,0,0,0-3.019-.55v0h-.03v3.189a3.945,3.945,0,0,1,2.937,1.027,4.821,4.821,0,0,1,1.164,3.072v3.981h3.189v-3.94A8.228,8.228,0,0,0,1935.942,7645.328Z" transform="translate(-1921.583 -7639.833)"/></g><g transform="translate(1902.102 7643.858)"><path class="g" d="M1914.633,7657.81a1.98,1.98,0,0,0-2.034,1.924v15.4a1.983,1.983,0,0,0,2.034,1.925h8.133V7657.81Z" transform="translate(-1912.599 -7657.81)"/><path class="g" d="M1937.006,7657.81h-8.133v19.245h8.133a1.982,1.982,0,0,0,2.033-1.925v-15.4A1.98,1.98,0,0,0,1937.006,7657.81Z" transform="translate(-1918.706 -7657.81)"/></g><path class="h" d="M1930.422,7668.91a3.042,3.042,0,1,0-4.711,2.543v5.106a.251.251,0,0,0,.252.251h2.834a.252.252,0,0,0,.252-.251v-5.106A3.039,3.039,0,0,0,1930.422,7668.91Z" transform="translate(-14.903 -16.975)"/></g></svg>