<svg xmlns="http://www.w3.org/2000/svg" width="33.53" height="27.74" viewBox="0 0 33.53 27.74"><defs><style>.a{fill:#1eeb00;}.b{fill:#fff;}</style></defs><g transform="translate(0.027 0.009)"><path class="a" d="M32.94,15.29a2.07,2.07,0,0,1-.54.39L27,18.31a13.81,13.81,0,0,1-3.31,5.34h0A13.87,13.87,0,1,1,27,9.41l5.39,2.64h0a2,2,0,0,1,.92,2.7,1.83,1.83,0,0,1-.37.54Zm-7.21,1.82A.89.89,0,0,1,26,17l5.71-2.79a.32.32,0,0,0,.15-.45.28.28,0,0,0-.15-.15L26,10.77a.87.87,0,0,1-.43-.51,12.18,12.18,0,1,0,0,7.2A.84.84,0,0,1,25.73,17.11Z" transform="translate(-0.02)"/><path class="b" d="M13.86,6.52c2.68,0,4.34,1.26,4.34,3.5,0,3-3.08,3.43-3.08,5.77H12.45c0-3.08,2.47-3.26,2.47-5.19,0-.84-.52-1.22-1.4-1.22S12,10,12,11.16H9.25C9.27,8.22,11,6.52,13.86,6.52ZM15.46,19a1.72,1.72,0,1,1-1.72-1.72A1.72,1.72,0,0,1,15.46,19Z" transform="translate(-0.02)"/></g></svg>