<svg xmlns="http://www.w3.org/2000/svg" width="22.922" height="23.442" viewBox="0 0 22.922 23.442"><g transform="translate(-5.411)"><g transform="translate(5.411)"><path d="M119.956,258.774a.532.532,0,0,0-.532-.532h-1.857a.532.532,0,0,0-.532.532v1.856a.532.532,0,0,0,.532.532h1.857a.532.532,0,0,0,.532-.532v-1.856Z" transform="translate(-111.675 -245.841)"/><path d="M216.59,258.774a.532.532,0,0,0-.532-.532H214.2a.532.532,0,0,0-.532.532v1.856a.532.532,0,0,0,.532.532h1.857a.532.532,0,0,0,.532-.532Z" transform="translate(-203.669 -245.841)"/><path d="M313.219,258.774a.532.532,0,0,0-.532-.532H310.83a.532.532,0,0,0-.532.532v1.856a.532.532,0,0,0,.532.532h1.857a.532.532,0,0,0,.532-.532Z" transform="translate(-295.657 -245.841)"/><path d="M119.956,355.407a.532.532,0,0,0-.532-.532h-1.857a.532.532,0,0,0-.532.532v1.856a.532.532,0,0,0,.532.532h1.857a.532.532,0,0,0,.532-.532v-1.856Z" transform="translate(-111.675 -337.834)"/><path d="M216.59,355.407a.532.532,0,0,0-.532-.532H214.2a.532.532,0,0,0-.532.532v1.856a.532.532,0,0,0,.532.532h1.857a.532.532,0,0,0,.532-.532Z" transform="translate(-203.669 -337.834)"/><path d="M313.219,355.407a.532.532,0,0,0-.532-.532H310.83a.532.532,0,0,0-.532.532v1.856a.532.532,0,0,0,.532.532h1.857a.532.532,0,0,0,.532-.532v-1.856Z" transform="translate(-295.657 -337.834)"/><path d="M26.293,54.152v2.836A2.316,2.316,0,0,1,23.971,59.3H22.507a2.328,2.328,0,0,1-2.335-2.315V54.142h-6.6v2.846A2.328,2.328,0,0,1,11.237,59.3H9.772a2.316,2.316,0,0,1-2.321-2.315V54.152a2.111,2.111,0,0,0-2.04,2.1V72.87a2.112,2.112,0,0,0,2.1,2.114h18.72a2.114,2.114,0,0,0,2.1-2.114V56.252A2.111,2.111,0,0,0,26.293,54.152Zm-.68,17.683a.908.908,0,0,1-.908.908H9a.908.908,0,0,1-.908-.908V63.251A.908.908,0,0,1,9,62.343H24.7a.909.909,0,0,1,.908.909v8.584Z" transform="translate(-5.411 -51.542)"/><path d="M80.346,6.24h1.448a.8.8,0,0,0,.8-.8V.8a.8.8,0,0,0-.8-.8H80.346a.8.8,0,0,0-.8.8V5.445A.8.8,0,0,0,80.346,6.24Z" transform="translate(-75.99 0)"/><path d="M345.254,6.24H346.7a.8.8,0,0,0,.8-.8V.8a.8.8,0,0,0-.8-.8h-1.448a.8.8,0,0,0-.8.8V5.445A.8.8,0,0,0,345.254,6.24Z" transform="translate(-328.177 0)"/></g></g></svg>