<svg xmlns="http://www.w3.org/2000/svg" width="12.472" height="10.556" viewBox="0 0 12.472 10.556"><defs><style>.a{fill:#ff3434;}</style></defs><g transform="translate(-3.375 -5.625)"><path class="a" d="M11.292,14.382a.421.421,0,0,0-.42.42.541.541,0,0,1-.54.54H4.754a.541.541,0,0,1-.54-.54V7a.541.541,0,0,1,.54-.54h5.578a.541.541,0,0,1,.54.54.42.42,0,1,0,.84,0,1.38,1.38,0,0,0-1.379-1.379H4.754A1.38,1.38,0,0,0,3.375,7v7.8a1.38,1.38,0,0,0,1.379,1.379h5.578A1.38,1.38,0,0,0,11.712,14.8.421.421,0,0,0,11.292,14.382Z"/><path class="a" d="M17.151,10.951a.417.417,0,0,0-.3-.123.41.41,0,0,0-.3.123.418.418,0,0,0,0,.594l1.955,1.925H10.826a.42.42,0,1,0,0,.84h7.7l-1.907,1.922a.424.424,0,0,0,0,.594l0,0a.434.434,0,0,0,.294.117.405.405,0,0,0,.3-.123l2.477-2.471a.589.589,0,0,0,0-.876Z" transform="translate(-4.032 -2.984)"/></g></svg>